<svg xmlns="http://www.w3.org/2000/svg" width="231" height="231" viewBox="0 0 231 231" fill="none">
<circle cx="115.5" cy="115.5" r="115.5" fill="#0038D1"/>
<path d="M71.16 87H79.32V87.24C76.96 87.68 76.08 88.92 76.08 91.64V115.4H75.88L56.04 92V110.12C56.04 113.24 57.12 114.2 59.68 114.76V115H51.2V114.76C53.88 114.28 54.72 113.2 54.72 110.12V90.44C53.68 89.24 52.56 88.12 51.2 87.24V87H60.52L74.84 103.52V91.64C74.84 88.88 74.04 87.88 71.16 87.24V87ZM90.3684 115.6C84.1684 115.6 79.9684 111.08 79.9684 104.72C79.9684 98.36 84.1684 93.84 90.3684 93.84C96.5684 93.84 100.728 98.36 100.728 104.72C100.728 111.08 96.5684 115.6 90.3684 115.6ZM90.3684 114.32C93.2084 114.32 94.4484 111.36 94.4484 104.72C94.4484 98.04 93.2084 95.12 90.3684 95.12C87.4884 95.12 86.2884 98.04 86.2884 104.72C86.2884 111.36 87.4884 114.32 90.3684 114.32ZM131.99 112.12C131.99 113.72 132.79 114.4 134.35 114.76V115H124.39V114.76C125.51 114.56 125.95 114.28 126.07 113.4V100.12C126.07 97.68 125.19 96.48 123.39 96.48C122.07 96.48 121.23 97.32 120.75 98.48C120.83 98.92 120.87 99.4 120.87 99.88V112.36C120.87 113.84 121.31 114.44 122.67 114.76V115H113.15V114.76C114.51 114.44 114.95 113.84 114.95 112.36V100.12C114.95 97.68 114.03 96.48 112.27 96.48C110.99 96.48 110.19 97.28 109.75 98.32V112.36C109.75 113.84 110.19 114.44 111.55 114.76V115H101.47V114.76C103.03 114.4 103.83 113.72 103.83 112.12V99.36C103.83 97.24 103.27 96.6 101.47 96.44V96.2L109.75 93.92V97.68C110.51 95.32 112.51 93.84 115.15 93.84C118.15 93.84 120.03 95.36 120.63 97.84C121.39 95.52 123.51 93.84 126.31 93.84C130.03 93.84 131.99 96.24 131.99 99.88V112.12ZM155.958 110.6L156.318 110.64C155.638 113.92 153.518 115.6 150.718 115.6C148.238 115.6 146.838 114.2 146.558 112.08L146.478 111.76C145.918 113.76 143.958 115.6 140.958 115.6C137.518 115.6 135.598 113.24 135.598 110.6C135.598 107.04 138.478 104.72 143.078 103.76L146.398 103.08V102.24C146.398 99.16 145.278 97.04 141.918 97.04C139.318 97.04 137.478 98.28 136.598 101.4L136.278 101.32C136.918 96.72 139.958 93.84 144.678 93.84C149.998 93.84 152.318 97.24 152.318 102.36V110.4C152.318 111.8 152.998 112.52 153.878 112.52C154.638 112.52 155.518 112.08 155.958 110.6ZM144.038 112.56C145.158 112.56 145.918 112.12 146.398 111.08V104.08L144.838 104.36C141.718 105 141.118 106.96 141.118 108.92C141.118 110.96 142.118 112.56 144.038 112.56ZM176.065 111.84C176.065 113.88 176.905 114.4 178.425 114.76V115H170.145V111.52C169.385 113.68 167.465 115.6 164.425 115.6C160.025 115.6 157.025 111.56 157.025 105.48C157.025 98.44 161.305 93.84 166.745 93.84C168.225 93.84 169.305 94.2 170.145 94.76V91.08C170.145 89.4 169.305 88.56 166.825 88.76V88.52L176.065 85.8V111.84ZM167.665 112.44C168.905 112.44 169.745 111.84 170.145 110.88V96.44C169.785 95.6 168.985 94.92 167.745 94.92C165.065 94.92 163.425 98.48 163.425 103.84C163.425 109.28 165.305 112.44 167.665 112.44ZM75.92 145.68C76.8 148.12 77.52 149.2 79.32 149.76V150H66.72V149.76C68.88 149.08 69.4 147.6 68.36 144.44L66.8 139.84H57.4L55.6 145.08C54.6 147.96 55.68 149.16 57.64 149.76V150H50.28V149.76C52.2 149.16 53.12 147.88 54.16 144.96L62.2 122H67.48L75.92 145.68ZM57.76 138.72H66.44L62.12 126.04L57.76 138.72ZM93.6503 145.52C96.9303 145.76 99.2903 147.24 99.2903 150.64C99.2903 154.32 96.4903 158.6 88.5303 158.6C82.2103 158.6 79.3703 156.76 79.3703 153.84C79.3703 152.16 80.5703 150.6 82.8103 149.96C81.3303 149.24 80.4903 147.88 80.4903 146C80.4903 143.84 81.9303 141.88 84.0103 141.32C81.8903 140.12 80.6503 138.12 80.6503 135.64C80.6503 131.6 84.0103 128.84 89.1303 128.84C90.5703 128.84 91.8503 129.04 92.9703 129.44H99.0103V130.24H94.6503C96.5703 131.44 97.6503 133.32 97.6503 135.64C97.6503 139.72 94.2903 142.48 89.1303 142.48C87.4503 142.48 85.9703 142.2 84.7303 141.64C83.7303 141.92 83.2103 142.48 83.2103 143.24C83.2103 144.28 84.0903 144.84 85.6903 144.92L93.6503 145.52ZM89.1703 129.56C87.4103 129.56 86.3703 131.56 86.3703 135.84C86.3703 139.88 87.4103 141.72 89.1703 141.72C90.8903 141.72 91.9303 139.88 91.9303 135.84C91.9303 131.56 90.8903 129.6 89.1703 129.56ZM90.2103 157.12C94.3703 157.12 96.6903 155.52 96.6903 153.44C96.6903 152.04 95.8503 151.48 93.3303 151.28L84.9303 150.52C84.4103 150.48 83.9703 150.4 83.5303 150.24C83.0103 150.84 82.8103 151.4 82.8103 152.24C82.8103 155.16 85.6103 157.12 90.2103 157.12ZM116.826 142.68L117.106 142.76C116.106 148.52 112.466 150.6 108.986 150.6C104.346 150.6 100.106 147 100.106 140.12C100.106 133.56 103.746 128.84 109.226 128.84C113.106 128.84 117.106 131.28 117.066 137.88H104.746C105.146 143 107.786 145.84 111.666 145.84C113.826 145.84 115.666 145.2 116.826 142.68ZM108.346 129.96C106.106 129.96 104.706 132.44 104.706 136.44V136.88H111.626C111.666 131.76 110.346 129.96 108.346 129.96ZM138.366 147.12C138.366 148.72 139.166 149.4 140.726 149.76V150H130.646V149.76C131.966 149.44 132.446 148.84 132.446 147.36V135.16C132.446 132.72 131.526 131.48 129.646 131.48C128.086 131.48 127.166 132.4 126.646 133.44V147.36C126.646 148.84 127.086 149.44 128.446 149.76V150H118.366V149.76C119.926 149.4 120.726 148.72 120.726 147.12V134.36C120.726 132.24 120.166 131.6 118.366 131.44V131.2L126.646 128.92V132.84C127.406 130.44 129.606 128.84 132.526 128.84C136.326 128.84 138.366 131.16 138.366 134.92V147.12ZM150.358 150.6C144.998 150.6 141.318 146.4 141.318 140.12C141.318 133.4 145.438 128.84 151.518 128.84C154.158 128.84 156.518 129.44 158.238 130.36L156.198 137.48L155.958 137.44C155.718 133.28 153.918 131.08 150.998 131.08C147.478 131.08 145.718 133.64 145.718 137.64C145.718 141.52 148.078 145.8 152.838 145.8C155.238 145.8 157.158 144.96 158.038 142.56L158.278 142.64C157.918 147.44 154.758 150.6 150.358 150.6ZM161.86 158.6C160.7 158.6 159.14 158.32 157.82 157.52L159.34 152.44H159.54C160.58 153.4 162.5 153.92 163.86 153.92C166.3 153.92 167.98 153.28 169.02 151.4L169.26 150.92L161.7 133.08C160.9 131.12 159.9 129.96 158.74 129.68V129.44H169.78V129.68C168.26 130 167.7 130.52 167.7 131.48C167.7 132.08 167.82 132.72 168.1 133.44L171.82 143.32L175.62 133.84C175.94 133.08 176.06 132.44 176.06 131.92C176.06 130.68 175.3 129.92 173.94 129.68V129.44H180.02V129.68C178.62 130.12 177.94 131.08 177.1 133.36L169.94 151.52C167.82 157.24 165.1 158.6 161.86 158.6Z" fill="white"/>
</svg>
