<svg xmlns="http://www.w3.org/2000/svg" width="130" height="73" viewBox="0 0 130 73" fill="none" aria-hidden="true">
<path d="M20.88 1.19922H29.04V1.43922C26.68 1.87922 25.8 3.11922 25.8 5.83922V29.5992H25.6L5.76 6.19922V24.3192C5.76 27.4392 6.84 28.3992 9.4 28.9592V29.1992H0.920001V28.9592C3.6 28.4792 4.44 27.3992 4.44 24.3192V4.63922C3.4 3.43922 2.28 2.31922 0.920001 1.43922V1.19922H10.24L24.56 17.7192V5.83922C24.56 3.07922 23.76 2.07922 20.88 1.43922V1.19922ZM40.0884 29.7992C33.8884 29.7992 29.6884 25.2792 29.6884 18.9192C29.6884 12.5592 33.8884 8.03922 40.0884 8.03922C46.2884 8.03922 50.4484 12.5592 50.4484 18.9192C50.4484 25.2792 46.2884 29.7992 40.0884 29.7992ZM40.0884 28.5192C42.9284 28.5192 44.1684 25.5592 44.1684 18.9192C44.1684 12.2392 42.9284 9.31922 40.0884 9.31922C37.2084 9.31922 36.0084 12.2392 36.0084 18.9192C36.0084 25.5592 37.2084 28.5192 40.0884 28.5192ZM81.7103 26.3192C81.7103 27.9192 82.5103 28.5992 84.0703 28.9592V29.1992H74.1103V28.9592C75.2303 28.7592 75.6703 28.4792 75.7903 27.5992V14.3192C75.7903 11.8792 74.9103 10.6792 73.1103 10.6792C71.7903 10.6792 70.9503 11.5192 70.4703 12.6792C70.5503 13.1192 70.5903 13.5992 70.5903 14.0792V26.5592C70.5903 28.0392 71.0303 28.6392 72.3903 28.9592V29.1992H62.8703V28.9592C64.2303 28.6392 64.6703 28.0392 64.6703 26.5592V14.3192C64.6703 11.8792 63.7503 10.6792 61.9903 10.6792C60.7103 10.6792 59.9103 11.4792 59.4703 12.5192V26.5592C59.4703 28.0392 59.9103 28.6392 61.2703 28.9592V29.1992H51.1903V28.9592C52.7503 28.5992 53.5503 27.9192 53.5503 26.3192V13.5592C53.5503 11.4392 52.9903 10.7992 51.1903 10.6392V10.3992L59.4703 8.11922V11.8792C60.2303 9.51922 62.2303 8.03922 64.8703 8.03922C67.8703 8.03922 69.7503 9.55922 70.3503 12.0392C71.1103 9.71922 73.2303 8.03922 76.0303 8.03922C79.7503 8.03922 81.7103 10.4392 81.7103 14.0792V26.3192ZM105.678 24.7992L106.038 24.8392C105.358 28.1192 103.238 29.7992 100.438 29.7992C97.9578 29.7992 96.5578 28.3992 96.2778 26.2792L96.1978 25.9592C95.6378 27.9592 93.6778 29.7992 90.6778 29.7992C87.2378 29.7992 85.3178 27.4392 85.3178 24.7992C85.3178 21.2392 88.1978 18.9192 92.7978 17.9592L96.1178 17.2792V16.4392C96.1178 13.3592 94.9978 11.2392 91.6378 11.2392C89.0378 11.2392 87.1978 12.4792 86.3178 15.5992L85.9978 15.5192C86.6378 10.9192 89.6778 8.03922 94.3978 8.03922C99.7178 8.03922 102.038 11.4392 102.038 16.5592V24.5992C102.038 25.9992 102.718 26.7192 103.598 26.7192C104.358 26.7192 105.238 26.2792 105.678 24.7992ZM93.7578 26.7592C94.8778 26.7592 95.6378 26.3192 96.1178 25.2792V18.2792L94.5578 18.5592C91.4378 19.1992 90.8378 21.1592 90.8378 23.1192C90.8378 25.1592 91.8378 26.7592 93.7578 26.7592ZM125.785 26.0392C125.785 28.0792 126.625 28.5992 128.145 28.9592V29.1992H119.865V25.7192C119.105 27.8792 117.185 29.7992 114.145 29.7992C109.745 29.7992 106.745 25.7592 106.745 19.6792C106.745 12.6392 111.025 8.03922 116.465 8.03922C117.945 8.03922 119.025 8.39922 119.865 8.95922V5.27922C119.865 3.59922 119.025 2.75922 116.545 2.95922V2.71922L125.785 -0.000782013V26.0392ZM117.385 26.6392C118.625 26.6392 119.465 26.0392 119.865 25.0792V10.6392C119.505 9.79922 118.705 9.11922 117.465 9.11922C114.785 9.11922 113.145 12.6792 113.145 18.0392C113.145 23.4792 115.025 26.6392 117.385 26.6392ZM25.64 59.8792C26.52 62.3192 27.24 63.3992 29.04 63.9592V64.1992H16.44V63.9592C18.6 63.2792 19.12 61.7992 18.08 58.6392L16.52 54.0392H7.12L5.32 59.2792C4.32 62.1592 5.4 63.3592 7.36 63.9592V64.1992H1.22935e-06V63.9592C1.92 63.3592 2.84 62.0792 3.88 59.1592L11.92 36.1992H17.2L25.64 59.8792ZM7.48 52.9192H16.16L11.84 40.2392L7.48 52.9192ZM43.3703 59.7192C46.6503 59.9592 49.0103 61.4392 49.0103 64.8392C49.0103 68.5192 46.2103 72.7992 38.2503 72.7992C31.9303 72.7992 29.0903 70.9592 29.0903 68.0392C29.0903 66.3592 30.2903 64.7992 32.5303 64.1592C31.0503 63.4392 30.2103 62.0792 30.2103 60.1992C30.2103 58.0392 31.6503 56.0792 33.7303 55.5192C31.6103 54.3192 30.3703 52.3192 30.3703 49.8392C30.3703 45.7992 33.7303 43.0392 38.8503 43.0392C40.2903 43.0392 41.5703 43.2392 42.6903 43.6392H48.7303V44.4392H44.3703C46.2903 45.6392 47.3703 47.5192 47.3703 49.8392C47.3703 53.9192 44.0103 56.6792 38.8503 56.6792C37.1703 56.6792 35.6903 56.3992 34.4503 55.8392C33.4503 56.1192 32.9303 56.6792 32.9303 57.4392C32.9303 58.4792 33.8103 59.0392 35.4103 59.1192L43.3703 59.7192ZM38.8903 43.7592C37.1303 43.7592 36.0903 45.7592 36.0903 50.0392C36.0903 54.0792 37.1303 55.9192 38.8903 55.9192C40.6103 55.9192 41.6503 54.0792 41.6503 50.0392C41.6503 45.7592 40.6103 43.7992 38.8903 43.7592ZM39.9303 71.3192C44.0903 71.3192 46.4103 69.7192 46.4103 67.6392C46.4103 66.2392 45.5703 65.6792 43.0503 65.4792L34.6503 64.7192C34.1303 64.6792 33.6903 64.5992 33.2503 64.4392C32.7303 65.0392 32.5303 65.5992 32.5303 66.4392C32.5303 69.3592 35.3303 71.3192 39.9303 71.3192ZM66.5459 56.8792L66.8259 56.9592C65.8259 62.7192 62.1859 64.7992 58.7059 64.7992C54.0659 64.7992 49.8259 61.1992 49.8259 54.3192C49.8259 47.7592 53.4659 43.0392 58.9459 43.0392C62.8259 43.0392 66.8259 45.4792 66.7859 52.0792H54.4659C54.8659 57.1992 57.5059 60.0392 61.3859 60.0392C63.5459 60.0392 65.3859 59.3992 66.5459 56.8792ZM58.0659 44.1592C55.8259 44.1592 54.4259 46.6392 54.4259 50.6392V51.0792H61.3459C61.3859 45.9592 60.0659 44.1592 58.0659 44.1592ZM88.0856 61.3192C88.0856 62.9192 88.8856 63.5992 90.4456 63.9592V64.1992H80.3656V63.9592C81.6856 63.6392 82.1656 63.0392 82.1656 61.5592V49.3592C82.1656 46.9192 81.2456 45.6792 79.3656 45.6792C77.8056 45.6792 76.8856 46.5992 76.3656 47.6392V61.5592C76.3656 63.0392 76.8056 63.6392 78.1656 63.9592V64.1992H68.0856V63.9592C69.6456 63.5992 70.4456 62.9192 70.4456 61.3192V48.5592C70.4456 46.4392 69.8856 45.7992 68.0856 45.6392V45.3992L76.3656 43.1192V47.0392C77.1256 44.6392 79.3256 43.0392 82.2456 43.0392C86.0456 43.0392 88.0856 45.3592 88.0856 49.1192V61.3192ZM100.078 64.7992C94.7184 64.7992 91.0384 60.5992 91.0384 54.3192C91.0384 47.5992 95.1584 43.0392 101.238 43.0392C103.878 43.0392 106.238 43.6392 107.958 44.5592L105.918 51.6792L105.678 51.6392C105.438 47.4792 103.638 45.2792 100.718 45.2792C97.1984 45.2792 95.4384 47.8392 95.4384 51.8392C95.4384 55.7192 97.7984 59.9992 102.558 59.9992C104.958 59.9992 106.878 59.1592 107.758 56.7592L107.998 56.8392C107.638 61.6392 104.478 64.7992 100.078 64.7992ZM111.58 72.7992C110.42 72.7992 108.86 72.5192 107.54 71.7192L109.06 66.6392H109.26C110.3 67.5992 112.22 68.1192 113.58 68.1192C116.02 68.1192 117.7 67.4792 118.74 65.5992L118.98 65.1192L111.42 47.2792C110.62 45.3192 109.62 44.1592 108.46 43.8792V43.6392H119.5V43.8792C117.98 44.1992 117.42 44.7192 117.42 45.6792C117.42 46.2792 117.54 46.9192 117.82 47.6392L121.54 57.5192L125.34 48.0392C125.66 47.2792 125.78 46.6392 125.78 46.1192C125.78 44.8792 125.02 44.1192 123.66 43.8792V43.6392H129.74V43.8792C128.34 44.3192 127.66 45.2792 126.82 47.5592L119.66 65.7192C117.54 71.4392 114.82 72.7992 111.58 72.7992Z" fill="#0038D1"/>
</svg>
